<?xml version="1.0" encoding="iso-8859-1"?>
<!-- Generator: Adobe Illustrator 24.3.0, SVG Export Plug-In . SVG Version: 6.00 Build 0)  -->
<svg version="1.1" id="Layer_1" xmlns="http://www.w3.org/2000/svg" xmlns:xlink="http://www.w3.org/1999/xlink" x="0px" y="0px"
	 viewBox="0 0 500 500" style="enable-background:new 0 0 500 500;" xml:space="preserve">
<g id="watermark_1_">
	<g>
		<g id="watermark" style="opacity:0.61;">
			<g>
				<g>
					<g>
						<g>
							<polygon style="fill:#FFFFFF;" points="213.765,461.172 208.204,474.017 205.268,474.017 199.726,461.172 202.938,461.172 
								206.846,470.347 210.81,461.172 							"/>
						</g>
						<g>
							<path style="fill:#FFFFFF;" d="M223.507,469.741h-7.469c0.275,1.23,1.321,1.982,2.826,1.982c1.046,0,1.798-0.312,2.477-0.954
								l1.523,1.651c-0.917,1.046-2.294,1.597-4.074,1.597c-3.413,0-5.634-2.147-5.634-5.083c0-2.954,2.257-5.083,5.267-5.083
								c2.899,0,5.138,1.945,5.138,5.12C223.562,469.191,223.526,469.503,223.507,469.741 M216.002,468.071h4.863
								c-0.202-1.248-1.138-2.055-2.422-2.055C217.139,466.016,216.204,466.805,216.002,468.071"/>
						</g>
						<g>
							<path style="fill:#FFFFFF;" d="M224.735,468.934c0-2.973,2.294-5.083,5.505-5.083c2.074,0,3.707,0.899,4.423,2.514
								l-2.22,1.193c-0.532-0.936-1.321-1.358-2.221-1.358c-1.45,0-2.587,1.009-2.587,2.734c0,1.725,1.138,2.734,2.587,2.734
								c0.899,0,1.688-0.404,2.221-1.358l2.22,1.211c-0.716,1.578-2.349,2.495-4.423,2.495
								C227.029,474.017,224.735,471.907,224.735,468.934"/>
						</g>
						<g>
							<path style="fill:#FFFFFF;" d="M242.828,473.393c-0.587,0.422-1.45,0.624-2.331,0.624c-2.33,0-3.688-1.193-3.688-3.542
								v-4.055h-1.523v-2.202h1.523v-2.404h2.863v2.404h2.459v2.202h-2.459v4.019c0,0.844,0.458,1.303,1.229,1.303
								c0.422,0,0.844-0.128,1.156-0.367L242.828,473.393z"/>
						</g>
					</g>
					<g>
						<path style="fill:#FFFFFF;" d="M262.474,463.997v2.643c-0.238-0.018-0.422-0.037-0.642-0.037
							c-1.578,0-2.624,0.862-2.624,2.753v4.661h-2.863v-9.873h2.734v1.303C259.776,464.493,260.951,463.997,262.474,463.997"/>
					</g>
					<g>
						<path style="fill:#FFFFFF;" d="M263.299,472.53l1.009-2.239c1.083,0.789,2.697,1.339,4.239,1.339
							c1.762,0,2.477-0.587,2.477-1.376c0-2.404-7.469-0.752-7.469-5.524c0-2.184,1.762-4,5.413-4c1.615,0,3.267,0.385,4.459,1.138
							l-0.918,2.257c-1.193-0.679-2.422-1.009-3.56-1.009c-1.761,0-2.44,0.66-2.44,1.468c0,2.367,7.468,0.734,7.468,5.45
							c0,2.147-1.78,3.982-5.45,3.982C266.492,474.017,264.437,473.411,263.299,472.53"/>
					</g>
					<g>
						<path style="fill:#FFFFFF;" d="M285.428,469.741h-7.469c0.275,1.23,1.321,1.982,2.826,1.982c1.046,0,1.798-0.312,2.477-0.954
							l1.523,1.651c-0.918,1.046-2.294,1.597-4.074,1.597c-3.413,0-5.634-2.147-5.634-5.083c0-2.954,2.257-5.083,5.267-5.083
							c2.9,0,5.138,1.945,5.138,5.12C285.484,469.191,285.447,469.503,285.428,469.741 M277.923,468.071h4.863
							c-0.202-1.248-1.138-2.055-2.422-2.055C279.061,466.016,278.125,466.805,277.923,468.071"/>
					</g>
					<g>
						<path style="fill:#FFFFFF;" d="M297.007,469.741h-7.469c0.275,1.23,1.321,1.982,2.826,1.982c1.046,0,1.798-0.312,2.477-0.954
							l1.523,1.651c-0.918,1.046-2.294,1.597-4.074,1.597c-3.413,0-5.634-2.147-5.634-5.083c0-2.954,2.257-5.083,5.267-5.083
							c2.899,0,5.138,1.945,5.138,5.12C297.062,469.191,297.025,469.503,297.007,469.741 M289.501,468.071h4.863
							c-0.202-1.248-1.138-2.055-2.422-2.055C290.639,466.016,289.703,466.805,289.501,468.071"/>
					</g>
					<g>
						<polygon style="fill:#FFFFFF;" points="303.208,470.145 301.831,471.503 301.831,474.017 298.969,474.017 298.969,460.401 
							301.831,460.401 301.831,468.108 306.016,464.144 309.429,464.144 305.318,468.328 309.796,474.017 306.327,474.017 						"/>
					</g>
					<g>
						<path style="fill:#FFFFFF;" d="M256.601,475.359L256.601,475.359l-2.86-2.86c-0.435,0.508-0.953,0.943-1.534,1.284
							c-0.092,0.069-0.186,0.136-0.283,0.199l3.027,3.027c0.456,0.456,1.195,0.456,1.65,0
							C257.057,476.554,257.057,475.815,256.601,475.359"/>
					</g>
					<g>
						<path style="fill:#FFFFFF;" d="M249.984,463.244c0.221-0.173,0.495-0.281,0.797-0.281c0.042,0,0.083,0.002,0.124,0.006
							c-0.214-0.156-0.478-0.249-0.764-0.249c-0.395,0-0.744,0.18-0.981,0.458c-0.051,0-0.1,0.006-0.151,0.008
							c0.039-0.077,0.064-0.162,0.064-0.255c0-0.234-0.143-0.434-0.346-0.519c0.087,0.126,0.138,0.279,0.138,0.445
							c0,0.122-0.031,0.237-0.081,0.341c-2.811,0.201-5.03,2.539-5.03,5.4c0,2.993,2.426,5.42,5.42,5.42
							c2.993,0,5.42-2.426,5.42-5.42C254.595,465.879,252.593,463.635,249.984,463.244 M247.983,464.656
							c0.435,0,0.844,0.112,1.199,0.309c0.374-0.245,0.82-0.387,1.299-0.387c0.711,0,1.348,0.312,1.784,0.806
							c-0.435-0.379-1.004-0.61-1.627-0.61c-0.449,0-0.87,0.12-1.234,0.329c-0.079,0.046-0.156,0.096-0.229,0.15
							c-0.065-0.048-0.133-0.093-0.204-0.134c-0.369-0.219-0.8-0.344-1.26-0.344c-0.3,0-0.588,0.054-0.854,0.152
							C247.196,464.754,247.578,464.656,247.983,464.656 M251.772,469.098c0.115,0.305,0.181,0.634,0.181,0.979
							c0,1.534-1.244,2.777-2.778,2.777c-1.534,0-2.777-1.243-2.777-2.777c0-0.345,0.066-0.674,0.181-0.979
							c-0.62-0.382-1.035-1.064-1.035-1.846c0-1.197,0.971-2.168,2.168-2.168c0.565,0,1.078,0.218,1.463,0.572
							c0.386-0.354,0.899-0.572,1.464-0.572c1.197,0,2.168,0.971,2.168,2.168C252.807,468.034,252.392,468.716,251.772,469.098"/>
					</g>
					<g>
						<path style="fill:#FFFFFF;" d="M251.666,467.061c0,0.497-0.404,0.901-0.901,0.901c-0.497,0-0.901-0.404-0.901-0.901
							s0.404-0.901,0.901-0.901c0.101,0,0.197,0.017,0.287,0.047c-0.03,0.062-0.045,0.132-0.045,0.204
							c0,0.273,0.221,0.494,0.494,0.494c0.05,0,0.099-0.008,0.146-0.022C251.66,466.941,251.666,467,251.666,467.061"/>
					</g>
					<g>
						<path style="fill:#FFFFFF;" d="M248.255,467.061c0,0.376-0.305,0.681-0.681,0.681c-0.376,0-0.681-0.305-0.681-0.681
							s0.305-0.681,0.681-0.681c0.076,0,0.149,0.013,0.217,0.035c-0.023,0.047-0.034,0.1-0.034,0.155
							c0,0.206,0.167,0.374,0.374,0.374c0.038,0,0.075-0.006,0.11-0.017C248.25,466.97,248.255,467.015,248.255,467.061"/>
					</g>
					<g>
						<g>
							<g>
								<rect x="242.908" y="467.83" style="fill:#FFFFFF;" width="0.616" height="0.616"/>
							</g>
							<g>
								<rect x="254.827" y="467.83" style="fill:#FFFFFF;" width="0.616" height="0.616"/>
							</g>
							<g>
								<path style="fill:#FFFFFF;" d="M255.205,468.082h-0.14c0-3.248-2.642-5.89-5.89-5.89c-3.248,0-5.89,2.642-5.89,5.89h-0.14
									c0-1.611,0.627-3.125,1.766-4.264c1.139-1.139,2.653-1.766,4.264-1.766c1.611,0,3.125,0.627,4.264,1.766
									C254.578,464.957,255.205,466.471,255.205,468.082"/>
							</g>
						</g>
						<g>
							<rect x="248.868" y="461.814" style="fill:#FFFFFF;" width="0.616" height="0.616"/>
						</g>
						<g>
							<rect x="244.95" y="462.052" style="fill:#FFFFFF;" width="8.45" height="0.14"/>
						</g>
						<g>
							<path style="fill:#FFFFFF;" d="M245.174,462.15c0,0.108-0.088,0.196-0.196,0.196c-0.108,0-0.196-0.088-0.196-0.196
								c0-0.108,0.088-0.196,0.196-0.196C245.086,461.954,245.174,462.042,245.174,462.15"/>
						</g>
						<g>
							<path style="fill:#FFFFFF;" d="M253.596,462.15c0,0.108-0.088,0.196-0.196,0.196c-0.108,0-0.196-0.088-0.196-0.196
								c0-0.108,0.088-0.196,0.196-0.196C253.509,461.954,253.596,462.042,253.596,462.15"/>
						</g>
					</g>
				</g>
				<g>
					<path style="fill:#FFFFFF;" d="M314.356,473.409c0,1.559-2.364,1.559-2.364,0C311.993,471.851,314.356,471.851,314.356,473.409
						z"/>
				</g>
				<g>
					<g>
						<g>
							<path style="fill:#FFFFFF;" d="M161.739,466.549l1.772,6.088l1.855-6.088h2.215l-2.823,8.14h-2.33l-0.837-2.396l-0.722-2.708
								l-0.722,2.708l-0.837,2.396h-2.33l-2.839-8.14h2.231l1.855,6.088l1.756-6.088H161.739z"/>
						</g>
						<g>
							<path style="fill:#FFFFFF;" d="M176.713,466.549l1.772,6.088l1.855-6.088h2.215l-2.823,8.14h-2.33l-0.837-2.396l-0.722-2.708
								l-0.722,2.708l-0.837,2.396h-2.33l-2.839-8.14h2.231l1.855,6.088l1.756-6.088H176.713z"/>
						</g>
						<g>
							<path style="fill:#FFFFFF;" d="M191.687,466.549l1.772,6.088l1.855-6.088h2.215l-2.823,8.14h-2.33l-0.837-2.396l-0.722-2.708
								l-0.722,2.708l-0.837,2.396h-2.33l-2.839-8.14h2.231l1.855,6.088l1.756-6.088H191.687z"/>
						</g>
					</g>
					<g>
						<path style="fill:#FFFFFF;" d="M200.908,473.52c0,1.559-2.364,1.559-2.364,0C198.545,471.962,200.908,471.962,200.908,473.52z
							"/>
					</g>
					<g>
						<path style="fill:#FFFFFF;" d="M322.71,473.409c-0.935,0.919-1.919,1.28-3.117,1.28c-2.346,0-4.3-1.411-4.3-4.282
							s1.953-4.284,4.3-4.284c1.149,0,2.035,0.329,2.921,1.199l-1.264,1.329c-0.476-0.428-1.066-0.64-1.623-0.64
							c-1.346,0-2.33,0.985-2.33,2.396c0,1.542,1.05,2.362,2.297,2.362c0.64,0,1.28-0.18,1.772-0.672L322.71,473.409z"/>
					</g>
					<g>
						<path style="fill:#FFFFFF;" d="M331.805,470.472c0,2.33-1.591,4.217-4.217,4.217c-2.626,0-4.201-1.887-4.201-4.217
							c0-2.314,1.609-4.217,4.185-4.217C330.149,466.255,331.805,468.158,331.805,470.472z M325.389,470.472
							c0,1.231,0.739,2.38,2.199,2.38c1.46,0,2.199-1.149,2.199-2.38c0-1.215-0.854-2.396-2.199-2.396
							C326.144,468.077,325.389,469.258,325.389,470.472z"/>
					</g>
					<g>
						<path style="fill:#FFFFFF;" d="M338.572,474.689v-4.332c0-1.068-0.559-2.035-1.658-2.035c-1.082,0-1.722,0.967-1.722,2.035
							v4.332h-2.003v-8.107h1.855l0.148,0.985c0.426-0.82,1.362-1.116,2.133-1.116c0.969,0,1.937,0.394,2.396,1.51
							c0.723-1.149,1.658-1.478,2.708-1.478c2.297,0,3.43,1.412,3.43,3.84v4.365h-2.003v-4.365c0-1.066-0.442-1.97-1.526-1.97
							c-1.082,0-1.756,0.935-1.756,2.003v4.332H338.572z"/>
					</g>
				</g>
			</g>
		</g>
		<g style="opacity:0.61;">
			<g>
				<g>
					<path style="fill:#FFFFFF;" d="M345.988,431.299c-0.006-1.224-0.959-2.121-2.189-2.14c-0.924-0.014-0.832,0.12-0.834-0.867
						c-0.003-1.097-0.007-2.194,0.003-3.292c0.003-0.379-0.112-0.691-0.362-0.976c-2.342-2.668-4.678-5.342-7.019-8.011
						c-0.12-0.137-0.275-0.244-0.414-0.366c-6.214,0-12.427,0-18.641,0c-0.794,0.293-1.14,0.868-1.138,1.709
						c0.01,3.748,0.004,7.496,0.004,11.243c0,0.556-0.003,0.589-0.55,0.551c-1.497-0.102-2.516,0.986-2.497,2.492
						c0.044,3.476,0.013,6.953,0.014,10.429c0.001,1.58,0.867,2.443,2.45,2.449c0.582,0.002,0.582,0.002,0.582,0.6
						c0,2.219-0.001,4.438,0.001,6.657c0.001,1.192,0.58,1.771,1.768,1.771c8.013,0.001,16.027,0.001,24.04,0
						c1.168,0,1.755-0.583,1.757-1.745c0.002-2.256,0-4.512,0.001-6.768c0-0.512,0.002-0.511,0.52-0.515
						c0.271-0.002,0.541,0.008,0.809-0.058c0.996-0.246,1.69-1.044,1.694-2.069C346.003,438.696,346.005,434.997,345.988,431.299z
						 M317.537,417.162c5.337,0,10.674,0,16.01,0c0.548,0,0.554,0.007,0.554,0.561c0.001,2.243-0.001,4.486,0.001,6.73
						c0.001,0.811,0.249,1.059,1.06,1.059c1.91,0.001,3.821,0,5.731,0.001c0.458,0,0.479,0.021,0.481,0.483
						c0.003,0.887,0.002,1.775,0,2.662c-0.001,0.477-0.024,0.498-0.504,0.499c-3.895,0.001-7.79,0-11.684,0
						c-3.882,0-7.765,0-11.647,0c-0.55,0-0.552-0.001-0.552-0.561c-0.001-3.624-0.001-7.247,0-10.871
						C316.987,417.166,316.991,417.162,317.537,417.162z M340.822,451.579c-3.883,0.001-7.766,0-11.65,0c-3.871,0-7.742,0-11.613,0
						c-0.572,0-0.574-0.002-0.574-0.579c-0.001-1.997-0.001-3.994,0.001-5.991c0-0.464,0.023-0.486,0.478-0.487
						c7.803-0.001,15.607-0.001,23.41,0c0.478,0,0.499,0.02,0.499,0.503c0.002,1.997,0.001,3.994,0,5.991
						C341.375,451.574,341.37,451.579,340.822,451.579z"/>
				</g>
				<g>
					<g>
						<rect x="327.418" y="417.053" style="fill:#FFFFFF;" width="1.757" height="1.054"/>
					</g>
					<g>
						<rect x="325.662" y="418.107" style="fill:#FFFFFF;" width="1.757" height="1.054"/>
					</g>
					<g>
						<rect x="327.418" y="419.161" style="fill:#FFFFFF;" width="1.757" height="1.054"/>
					</g>
					<g>
						<rect x="325.662" y="420.215" style="fill:#FFFFFF;" width="1.757" height="1.054"/>
					</g>
					<g>
						<rect x="327.418" y="421.269" style="fill:#FFFFFF;" width="1.757" height="1.054"/>
					</g>
					<g>
						<rect x="325.662" y="422.323" style="fill:#FFFFFF;" width="1.757" height="1.054"/>
					</g>
					<g>
						<rect x="327.418" y="423.378" style="fill:#FFFFFF;" width="1.757" height="1.054"/>
					</g>
					<g>
						<rect x="325.662" y="424.432" style="fill:#FFFFFF;" width="1.757" height="1.054"/>
					</g>
					<g>
						<rect x="327.418" y="425.486" style="fill:#FFFFFF;" width="1.757" height="1.054"/>
					</g>
					<g>
						<rect x="325.662" y="426.54" style="fill:#FFFFFF;" width="1.757" height="1.054"/>
					</g>
					<g>
						<rect x="327.418" y="427.594" style="fill:#FFFFFF;" width="1.757" height="1.054"/>
					</g>
					<g>
						<rect x="325.662" y="428.648" style="fill:#FFFFFF;" width="1.757" height="1.054"/>
					</g>
				</g>
			</g>
			<g>
				<path style="fill:#FFFFFF;" d="M187.637,431.299c-0.006-1.224-0.959-2.121-2.189-2.14c-0.924-0.014-0.832,0.12-0.834-0.867
					c-0.003-1.097-0.007-2.194,0.003-3.292c0.003-0.379-0.112-0.691-0.362-0.976c-2.342-2.668-4.678-5.342-7.019-8.011
					c-0.12-0.137-0.275-0.244-0.414-0.366c-6.214,0-12.427,0-18.641,0c-0.794,0.293-1.14,0.868-1.138,1.709
					c0.01,3.748,0.004,7.496,0.004,11.243c0,0.556-0.003,0.589-0.55,0.551c-1.497-0.102-2.516,0.986-2.497,2.492
					c0.044,3.476,0.013,6.953,0.014,10.429c0.001,1.58,0.867,2.443,2.45,2.449c0.582,0.002,0.582,0.002,0.582,0.6
					c0,2.219-0.001,4.438,0.001,6.657c0.001,1.192,0.58,1.771,1.768,1.771c8.013,0.001,16.027,0.001,24.04,0
					c1.168,0,1.755-0.583,1.757-1.745c0.002-2.256,0-4.512,0.001-6.768c0-0.512,0.002-0.511,0.52-0.515
					c0.271-0.002,0.541,0.008,0.809-0.058c0.996-0.246,1.69-1.044,1.694-2.069C187.652,438.696,187.655,434.997,187.637,431.299z
					 M159.187,417.162c5.337,0,10.674,0,16.01,0c0.548,0,0.554,0.007,0.554,0.561c0.001,2.243-0.001,4.486,0.001,6.73
					c0.001,0.811,0.249,1.059,1.06,1.059c1.91,0.001,3.821,0,5.731,0.001c0.458,0,0.479,0.021,0.481,0.483
					c0.003,0.887,0.002,1.775,0,2.662c-0.001,0.477-0.024,0.498-0.504,0.499c-3.895,0.001-7.79,0-11.684,0
					c-3.882,0-7.765,0-11.647,0c-0.55,0-0.552-0.001-0.552-0.561c-0.001-3.624-0.001-7.247,0-10.871
					C158.636,417.166,158.64,417.162,159.187,417.162z M182.472,451.579c-3.883,0.001-7.766,0-11.65,0c-3.871,0-7.742,0-11.613,0
					c-0.572,0-0.574-0.002-0.574-0.579c-0.001-1.997-0.001-3.994,0.001-5.991c0-0.464,0.023-0.486,0.478-0.487
					c7.803-0.001,15.607-0.001,23.41,0c0.478,0,0.499,0.02,0.499,0.503c0.002,1.997,0.001,3.994,0,5.991
					C183.024,451.574,183.019,451.579,182.472,451.579z"/>
			</g>
			<g>
				<path style="fill:#FFFFFF;" d="M159.779,440.669v-7.897h2.779c0.375,0,0.726,0.061,1.053,0.182
					c0.327,0.121,0.612,0.292,0.855,0.513c0.242,0.221,0.434,0.483,0.573,0.789c0.14,0.305,0.21,0.642,0.21,1.009
					c0,0.375-0.07,0.715-0.21,1.02c-0.14,0.305-0.331,0.568-0.573,0.789c-0.243,0.221-0.528,0.392-0.855,0.513
					c-0.327,0.121-0.678,0.182-1.053,0.182h-1.29v2.901H159.779z M162.58,436.356c0.39,0,0.684-0.111,0.882-0.331
					c0.199-0.22,0.298-0.474,0.298-0.761c0-0.14-0.024-0.276-0.072-0.408c-0.048-0.132-0.121-0.248-0.221-0.347
					c-0.099-0.099-0.223-0.178-0.37-0.237c-0.147-0.059-0.32-0.089-0.518-0.089h-1.312v2.173H162.58z"/>
				<path style="fill:#FFFFFF;" d="M166.308,432.771h1.731l3.177,5.294h0.088l-0.088-1.522v-3.772h1.478v7.897h-1.566l-3.353-5.592
					h-0.088l0.088,1.522v4.07h-1.467V432.771z"/>
				<path style="fill:#FFFFFF;" d="M177.922,436.334h3.872c0.022,0.089,0.04,0.195,0.055,0.32c0.014,0.125,0.022,0.25,0.022,0.375
					c0,0.507-0.077,0.985-0.231,1.434c-0.154,0.449-0.397,0.849-0.728,1.202c-0.353,0.375-0.776,0.666-1.268,0.871
					c-0.493,0.206-1.055,0.309-1.688,0.309c-0.574,0-1.114-0.103-1.622-0.309c-0.507-0.206-0.948-0.492-1.323-0.86
					c-0.375-0.367-0.673-0.803-0.894-1.307c-0.221-0.504-0.331-1.053-0.331-1.649c0-0.595,0.11-1.145,0.331-1.649
					c0.221-0.504,0.518-0.939,0.894-1.307c0.375-0.367,0.816-0.654,1.323-0.86c0.507-0.206,1.048-0.309,1.622-0.309
					c0.64,0,1.211,0.11,1.715,0.331c0.504,0.221,0.935,0.526,1.296,0.915l-1.025,1.004c-0.258-0.272-0.544-0.48-0.861-0.623
					c-0.316-0.143-0.695-0.215-1.136-0.215c-0.361,0-0.703,0.065-1.026,0.193c-0.324,0.129-0.607,0.311-0.85,0.546
					c-0.242,0.235-0.436,0.52-0.579,0.855c-0.143,0.335-0.215,0.708-0.215,1.119c0,0.412,0.072,0.785,0.215,1.12
					c0.143,0.335,0.338,0.62,0.584,0.855c0.246,0.235,0.531,0.418,0.855,0.546c0.323,0.129,0.669,0.193,1.037,0.193
					c0.419,0,0.773-0.061,1.064-0.182c0.29-0.121,0.538-0.278,0.744-0.469c0.148-0.132,0.275-0.3,0.381-0.502
					c0.106-0.202,0.189-0.428,0.248-0.678h-2.482V436.334z"/>
			</g>
			<g>
				<path style="fill:#FFFFFF;" d="M224.019,431.299c-0.006-1.224-0.959-2.121-2.189-2.14c-0.924-0.014-0.832,0.12-0.834-0.867
					c-0.003-1.097-0.007-2.194,0.003-3.292c0.003-0.379-0.112-0.691-0.362-0.976c-2.342-2.668-4.678-5.342-7.019-8.011
					c-0.12-0.137-0.275-0.244-0.414-0.366c-6.214,0-12.427,0-18.641,0c-0.794,0.293-1.14,0.868-1.138,1.709
					c0.01,3.748,0.004,7.496,0.004,11.243c0,0.556-0.003,0.589-0.55,0.551c-1.497-0.102-2.516,0.986-2.497,2.492
					c0.044,3.476,0.013,6.953,0.014,10.429c0.001,1.58,0.867,2.443,2.45,2.449c0.582,0.002,0.582,0.002,0.582,0.6
					c0,2.219-0.001,4.438,0.001,6.657c0.001,1.192,0.58,1.771,1.768,1.771c8.013,0.001,16.027,0.001,24.04,0
					c1.168,0,1.755-0.583,1.757-1.745c0.002-2.256,0-4.512,0.001-6.768c0-0.512,0.002-0.511,0.52-0.515
					c0.271-0.002,0.541,0.008,0.809-0.058c0.997-0.246,1.69-1.044,1.694-2.069C224.034,438.696,224.036,434.997,224.019,431.299z
					 M195.568,417.162c5.337,0,10.674,0,16.01,0c0.548,0,0.554,0.007,0.554,0.561c0.001,2.243-0.001,4.486,0.001,6.73
					c0.001,0.811,0.249,1.059,1.06,1.059c1.91,0.001,3.821,0,5.731,0.001c0.458,0,0.479,0.021,0.481,0.483
					c0.003,0.887,0.002,1.775,0,2.662c-0.001,0.477-0.024,0.498-0.504,0.499c-3.895,0.001-7.79,0-11.684,0
					c-3.882,0-7.765,0-11.647,0c-0.55,0-0.552-0.001-0.552-0.561c-0.001-3.624-0.001-7.247,0-10.871
					C195.018,417.166,195.022,417.162,195.568,417.162z M218.854,451.579c-3.883,0.001-7.766,0-11.65,0c-3.871,0-7.742,0-11.613,0
					c-0.572,0-0.574-0.002-0.574-0.579c-0.001-1.997-0.001-3.994,0.001-5.991c0-0.464,0.023-0.486,0.478-0.487
					c7.803-0.001,15.607-0.001,23.41,0c0.478,0,0.499,0.02,0.499,0.503c0.002,1.997,0.001,3.994,0,5.991
					C219.406,451.574,219.401,451.579,218.854,451.579z"/>
			</g>
			<g>
				<path style="fill:#FFFFFF;" d="M205.111,432.771h1.699l2.967,7.897h-1.644l-0.651-1.886h-3.044l-0.651,1.886h-1.643
					L205.111,432.771z M206.997,437.415l-0.706-1.974l-0.287-0.96h-0.088l-0.287,0.96l-0.706,1.974H206.997z"/>
				<path style="fill:#FFFFFF;" d="M211.331,434.536c-0.125,0-0.245-0.024-0.359-0.072c-0.114-0.048-0.213-0.114-0.298-0.199
					c-0.084-0.084-0.151-0.182-0.198-0.292c-0.048-0.11-0.072-0.232-0.072-0.364s0.024-0.254,0.072-0.364
					c0.048-0.11,0.114-0.208,0.198-0.292c0.084-0.084,0.184-0.151,0.298-0.198c0.114-0.048,0.233-0.072,0.359-0.072
					c0.257,0,0.478,0.09,0.662,0.27c0.184,0.181,0.276,0.399,0.276,0.656s-0.092,0.476-0.276,0.656
					C211.809,434.446,211.589,434.536,211.331,434.536z M210.615,440.669v-5.404h1.445v5.404H210.615z"/>
			</g>
			<g>
				<path style="fill:#FFFFFF;" d="M261.044,431.299c-0.006-1.224-0.959-2.121-2.189-2.14c-0.924-0.014-0.832,0.12-0.834-0.867
					c-0.003-1.097-0.007-2.194,0.003-3.292c0.003-0.379-0.112-0.691-0.362-0.976c-2.342-2.668-4.678-5.342-7.019-8.011
					c-0.12-0.137-0.275-0.244-0.414-0.366c-6.214,0-12.427,0-18.641,0c-0.794,0.293-1.14,0.868-1.138,1.709
					c0.01,3.748,0.004,7.496,0.004,11.243c0,0.556-0.003,0.589-0.55,0.551c-1.497-0.102-2.516,0.986-2.497,2.492
					c0.044,3.476,0.013,6.953,0.014,10.429c0.001,1.58,0.867,2.443,2.45,2.449c0.582,0.002,0.582,0.002,0.582,0.6
					c0,2.219-0.001,4.438,0.001,6.657c0.001,1.192,0.58,1.771,1.768,1.771c8.013,0.001,16.027,0.001,24.04,0
					c1.168,0,1.755-0.583,1.757-1.745c0.002-2.256,0-4.512,0.001-6.768c0-0.512,0.002-0.511,0.52-0.515
					c0.271-0.002,0.541,0.008,0.809-0.058c0.996-0.246,1.69-1.044,1.694-2.069C261.059,438.696,261.061,434.997,261.044,431.299z
					 M232.593,417.162c5.337,0,10.674,0,16.01,0c0.548,0,0.554,0.007,0.554,0.561c0.001,2.243-0.001,4.486,0.001,6.73
					c0.001,0.811,0.249,1.059,1.06,1.059c1.91,0.001,3.821,0,5.731,0.001c0.458,0,0.479,0.021,0.481,0.483
					c0.003,0.887,0.002,1.775,0,2.662c-0.001,0.477-0.024,0.498-0.504,0.499c-3.895,0.001-7.79,0-11.684,0
					c-3.882,0-7.765,0-11.647,0c-0.55,0-0.552-0.001-0.552-0.561c-0.001-3.624-0.001-7.247,0-10.871
					C232.042,417.166,232.047,417.162,232.593,417.162z M255.878,451.579c-3.883,0.001-7.766,0-11.65,0c-3.871,0-7.742,0-11.613,0
					c-0.572,0-0.574-0.002-0.574-0.579c-0.001-1.997-0.001-3.994,0.001-5.991c0-0.464,0.023-0.486,0.478-0.487
					c7.803-0.001,15.607-0.001,23.41,0c0.478,0,0.499,0.02,0.499,0.503c0.002,1.997,0.001,3.994,0,5.991
					C256.431,451.574,256.426,451.579,255.878,451.579z"/>
			</g>
			<g>
				<path style="fill:#FFFFFF;" d="M236.361,440.845c-0.338,0-0.662-0.048-0.971-0.143c-0.309-0.095-0.592-0.239-0.849-0.43
					c-0.257-0.191-0.481-0.425-0.673-0.7c-0.191-0.276-0.342-0.597-0.452-0.965l1.401-0.551c0.103,0.397,0.283,0.726,0.54,0.987
					c0.257,0.261,0.596,0.392,1.015,0.392c0.154,0,0.303-0.02,0.447-0.061c0.143-0.04,0.272-0.099,0.386-0.176
					s0.204-0.175,0.27-0.292c0.066-0.118,0.099-0.254,0.099-0.408c0-0.147-0.026-0.279-0.077-0.397
					c-0.051-0.117-0.138-0.227-0.259-0.331c-0.121-0.103-0.28-0.202-0.475-0.298c-0.195-0.095-0.435-0.195-0.722-0.298l-0.485-0.176
					c-0.213-0.073-0.429-0.173-0.645-0.298c-0.217-0.125-0.413-0.276-0.59-0.452c-0.177-0.176-0.322-0.384-0.436-0.623
					c-0.114-0.239-0.171-0.509-0.171-0.81c0-0.309,0.06-0.597,0.182-0.866c0.121-0.268,0.294-0.503,0.518-0.706
					c0.224-0.202,0.492-0.36,0.805-0.474s0.66-0.171,1.042-0.171c0.397,0,0.74,0.053,1.031,0.16
					c0.291,0.107,0.537,0.243,0.739,0.408c0.202,0.165,0.366,0.348,0.491,0.546c0.125,0.199,0.217,0.386,0.276,0.563l-1.312,0.551
					c-0.074-0.221-0.208-0.419-0.402-0.596c-0.195-0.176-0.462-0.265-0.8-0.265c-0.324,0-0.592,0.075-0.805,0.226
					c-0.213,0.151-0.32,0.348-0.32,0.59c0,0.235,0.103,0.436,0.309,0.601c0.206,0.165,0.533,0.325,0.982,0.48l0.497,0.165
					c0.316,0.111,0.605,0.237,0.866,0.381c0.261,0.143,0.485,0.314,0.673,0.513c0.187,0.199,0.331,0.425,0.43,0.678
					c0.1,0.254,0.149,0.546,0.149,0.877c0,0.412-0.083,0.767-0.248,1.064c-0.165,0.298-0.377,0.542-0.634,0.734
					c-0.258,0.191-0.548,0.335-0.872,0.43C236.986,440.797,236.67,440.845,236.361,440.845z"/>
				<path style="fill:#FFFFFF;" d="M239.516,432.771h1.61l1.633,4.754l0.287,1.015h0.088l0.309-1.015l1.699-4.754h1.61l-2.879,7.897
					h-1.566L239.516,432.771z"/>
				<path style="fill:#FFFFFF;" d="M251.097,436.334h3.871c0.022,0.089,0.04,0.195,0.055,0.32c0.015,0.125,0.023,0.25,0.023,0.375
					c0,0.507-0.078,0.985-0.232,1.434c-0.154,0.449-0.397,0.849-0.728,1.202c-0.353,0.375-0.775,0.666-1.268,0.871
					c-0.493,0.206-1.055,0.309-1.688,0.309c-0.574,0-1.114-0.103-1.621-0.309c-0.507-0.206-0.949-0.492-1.324-0.86
					c-0.375-0.367-0.673-0.803-0.894-1.307c-0.22-0.504-0.331-1.053-0.331-1.649c0-0.595,0.11-1.145,0.331-1.649
					c0.221-0.504,0.518-0.939,0.894-1.307c0.375-0.367,0.816-0.654,1.324-0.86c0.507-0.206,1.047-0.309,1.621-0.309
					c0.64,0,1.211,0.11,1.715,0.331c0.504,0.221,0.936,0.526,1.296,0.915l-1.026,1.004c-0.257-0.272-0.544-0.48-0.861-0.623
					c-0.316-0.143-0.694-0.215-1.136-0.215c-0.36,0-0.702,0.065-1.026,0.193c-0.323,0.129-0.607,0.311-0.849,0.546
					c-0.243,0.235-0.436,0.52-0.579,0.855c-0.143,0.335-0.215,0.708-0.215,1.119c0,0.412,0.072,0.785,0.215,1.12
					c0.143,0.335,0.338,0.62,0.585,0.855c0.246,0.235,0.531,0.418,0.854,0.546c0.324,0.129,0.669,0.193,1.037,0.193
					c0.419,0,0.774-0.061,1.064-0.182c0.29-0.121,0.539-0.278,0.745-0.469c0.147-0.132,0.274-0.3,0.38-0.502
					c0.107-0.202,0.189-0.428,0.248-0.678h-2.482V436.334z"/>
			</g>
			<g>
				<path style="fill:#FFFFFF;" d="M297.3,431.299c-0.006-1.224-0.959-2.121-2.189-2.14c-0.924-0.014-0.832,0.12-0.834-0.867
					c-0.003-1.097-0.007-2.194,0.003-3.292c0.003-0.379-0.112-0.691-0.362-0.976c-2.342-2.668-4.678-5.342-7.019-8.011
					c-0.12-0.137-0.275-0.244-0.414-0.366c-6.214,0-12.427,0-18.641,0c-0.794,0.293-1.14,0.868-1.138,1.709
					c0.01,3.748,0.004,7.496,0.004,11.243c0,0.556-0.003,0.589-0.55,0.551c-1.497-0.102-2.516,0.986-2.497,2.492
					c0.044,3.476,0.013,6.953,0.014,10.429c0.001,1.58,0.867,2.443,2.45,2.449c0.582,0.002,0.582,0.002,0.582,0.6
					c0,2.219-0.001,4.438,0.001,6.657c0.001,1.192,0.58,1.771,1.768,1.771c8.013,0.001,16.027,0.001,24.04,0
					c1.168,0,1.755-0.583,1.757-1.745c0.002-2.256,0-4.512,0.001-6.768c0-0.512,0.002-0.511,0.52-0.515
					c0.271-0.002,0.541,0.008,0.809-0.058c0.996-0.246,1.69-1.044,1.694-2.069C297.315,438.696,297.318,434.997,297.3,431.299z
					 M268.85,417.162c5.337,0,10.674,0,16.01,0c0.548,0,0.554,0.007,0.554,0.561c0.001,2.243-0.001,4.486,0.001,6.73
					c0.001,0.811,0.249,1.059,1.06,1.059c1.91,0.001,3.821,0,5.731,0.001c0.458,0,0.479,0.021,0.481,0.483
					c0.003,0.887,0.002,1.775,0,2.662c-0.001,0.477-0.024,0.498-0.504,0.499c-3.895,0.001-7.79,0-11.684,0
					c-3.882,0-7.765,0-11.647,0c-0.55,0-0.552-0.001-0.552-0.561c-0.001-3.624-0.001-7.247,0-10.871
					C268.299,417.166,268.303,417.162,268.85,417.162z M292.135,451.579c-3.883,0.001-7.766,0-11.65,0c-3.871,0-7.742,0-11.613,0
					c-0.572,0-0.574-0.002-0.574-0.579c-0.001-1.997-0.001-3.994,0.001-5.991c0-0.464,0.023-0.486,0.478-0.487
					c7.803-0.001,15.607-0.001,23.41,0c0.478,0,0.499,0.02,0.499,0.503c0.001,1.997,0.001,3.994,0,5.991
					C292.687,451.574,292.682,451.579,292.135,451.579z"/>
			</g>
			<g>
				<path style="fill:#FFFFFF;" d="M272.966,434.183v1.831h3.165v1.412h-3.165v1.831h3.518v1.412h-5.007v-7.897h5.007v1.412H272.966
					z"/>
				<path style="fill:#FFFFFF;" d="M277.852,440.669v-7.897h2.779c0.375,0,0.726,0.061,1.053,0.182
					c0.327,0.121,0.612,0.292,0.855,0.513c0.243,0.221,0.434,0.483,0.574,0.789c0.14,0.305,0.209,0.642,0.209,1.009
					c0,0.375-0.07,0.715-0.209,1.02c-0.14,0.305-0.331,0.568-0.574,0.789c-0.243,0.221-0.528,0.392-0.855,0.513
					c-0.327,0.121-0.678,0.182-1.053,0.182h-1.29v2.901H277.852z M280.653,436.356c0.389,0,0.684-0.111,0.882-0.331
					c0.199-0.22,0.298-0.474,0.298-0.761c0-0.14-0.024-0.276-0.072-0.408c-0.048-0.132-0.121-0.248-0.221-0.347
					c-0.099-0.099-0.222-0.178-0.37-0.237c-0.147-0.059-0.32-0.089-0.518-0.089h-1.312v2.173H280.653z"/>
				<path style="fill:#FFFFFF;" d="M286.797,440.845c-0.338,0-0.662-0.048-0.971-0.143c-0.309-0.095-0.592-0.239-0.849-0.43
					c-0.257-0.191-0.482-0.425-0.673-0.7c-0.191-0.276-0.342-0.597-0.452-0.965l1.401-0.551c0.103,0.397,0.283,0.726,0.541,0.987
					c0.257,0.261,0.595,0.392,1.015,0.392c0.154,0,0.303-0.02,0.447-0.061c0.143-0.04,0.272-0.099,0.386-0.176
					c0.114-0.077,0.204-0.175,0.27-0.292c0.066-0.118,0.1-0.254,0.1-0.408c0-0.147-0.026-0.279-0.077-0.397
					c-0.051-0.117-0.138-0.227-0.259-0.331c-0.121-0.103-0.279-0.202-0.474-0.298c-0.195-0.095-0.436-0.195-0.723-0.298
					l-0.485-0.176c-0.213-0.073-0.428-0.173-0.645-0.298c-0.217-0.125-0.414-0.276-0.59-0.452c-0.176-0.176-0.322-0.384-0.436-0.623
					c-0.114-0.239-0.171-0.509-0.171-0.81c0-0.309,0.061-0.597,0.182-0.866c0.121-0.268,0.294-0.503,0.518-0.706
					c0.224-0.202,0.493-0.36,0.805-0.474c0.312-0.114,0.66-0.171,1.042-0.171c0.397,0,0.741,0.053,1.031,0.16
					c0.29,0.107,0.537,0.243,0.739,0.408c0.202,0.165,0.365,0.348,0.491,0.546c0.125,0.199,0.217,0.386,0.276,0.563l-1.312,0.551
					c-0.074-0.221-0.208-0.419-0.403-0.596c-0.195-0.176-0.462-0.265-0.799-0.265c-0.324,0-0.592,0.075-0.805,0.226
					c-0.213,0.151-0.32,0.348-0.32,0.59c0,0.235,0.103,0.436,0.309,0.601c0.206,0.165,0.533,0.325,0.982,0.48l0.496,0.165
					c0.316,0.111,0.605,0.237,0.866,0.381c0.261,0.143,0.485,0.314,0.673,0.513c0.187,0.199,0.331,0.425,0.43,0.678
					c0.099,0.254,0.149,0.546,0.149,0.877c0,0.412-0.083,0.767-0.248,1.064c-0.165,0.298-0.377,0.542-0.634,0.734
					c-0.258,0.191-0.548,0.335-0.872,0.43C287.422,440.797,287.105,440.845,286.797,440.845z"/>
			</g>
			<g>
				<path style="fill:#FFFFFF;" d="M321.394,439.168l4.004-4.985h-3.827v-1.412h5.559v1.5l-3.96,4.985h4.004v1.412h-5.779V439.168z"
					/>
				<path style="fill:#FFFFFF;" d="M328.409,432.771h1.489v7.897h-1.489V432.771z"/>
				<path style="fill:#FFFFFF;" d="M331.486,440.669v-7.897h2.779c0.375,0,0.726,0.061,1.053,0.182
					c0.327,0.121,0.612,0.292,0.855,0.513s0.434,0.483,0.574,0.789c0.14,0.305,0.209,0.642,0.209,1.009
					c0,0.375-0.07,0.715-0.209,1.02c-0.14,0.305-0.331,0.568-0.574,0.789c-0.243,0.221-0.528,0.392-0.855,0.513
					c-0.327,0.121-0.678,0.182-1.053,0.182h-1.29v2.901H331.486z M334.288,436.356c0.389,0,0.684-0.111,0.882-0.331
					c0.199-0.22,0.298-0.474,0.298-0.761c0-0.14-0.024-0.276-0.072-0.408c-0.048-0.132-0.121-0.248-0.221-0.347
					c-0.099-0.099-0.222-0.178-0.37-0.237c-0.147-0.059-0.32-0.089-0.518-0.089h-1.312v2.173H334.288z"/>
			</g>
		</g>
		<g style="opacity:0.61;">
			<path style="fill:#FFFFFF;" d="M300.133,433.27h9.067v2.242h-9.067V433.27z M300.133,437.136h9.067v2.243h-9.067V437.136z"/>
		</g>
	</g>
	<g style="opacity:0.61;">
		<path style="fill:#FFFFFF;" d="M156.756,478.878h1.607c1.263,0,2.114,0.812,2.114,1.974c0,1.161-0.851,1.973-2.114,1.973h-1.607
			V478.878z M158.34,482.464c1.049,0,1.725-0.665,1.725-1.612c0-0.947-0.677-1.613-1.725-1.613h-1.167v3.225H158.34z"/>
		<path style="fill:#FFFFFF;" d="M165.139,480.851c0-1.15,0.879-2.007,2.075-2.007c1.184,0,2.069,0.851,2.069,2.007
			c0,1.156-0.885,2.007-2.069,2.007C166.019,482.858,165.139,482.002,165.139,480.851z M168.866,480.851
			c0-0.942-0.705-1.635-1.652-1.635c-0.953,0-1.663,0.693-1.663,1.635c0,0.941,0.71,1.635,1.663,1.635
			C168.162,482.486,168.866,481.793,168.866,480.851z"/>
		<path style="fill:#FFFFFF;" d="M179.596,478.878l-1.331,3.947h-0.44l-1.156-3.366l-1.161,3.366h-0.434l-1.331-3.947h0.429
			l1.139,3.394l1.178-3.394h0.389l1.161,3.411l1.156-3.411H179.596z"/>
		<path style="fill:#FFFFFF;" d="M187.731,478.878v3.947h-0.344l-2.537-3.202v3.202h-0.417v-3.947h0.344l2.543,3.203v-3.203H187.731
			z"/>
		<path style="fill:#FFFFFF;" d="M193.093,478.878h0.417v3.586h2.21v0.361h-2.627V478.878z"/>
		<path style="fill:#FFFFFF;" d="M200.061,480.851c0-1.15,0.879-2.007,2.075-2.007c1.184,0,2.069,0.851,2.069,2.007
			c0,1.156-0.885,2.007-2.069,2.007C200.941,482.858,200.061,482.002,200.061,480.851z M203.788,480.851
			c0-0.942-0.705-1.635-1.652-1.635c-0.953,0-1.663,0.693-1.663,1.635c0,0.941,0.71,1.635,1.663,1.635
			C203.083,482.486,203.788,481.793,203.788,480.851z"/>
		<path style="fill:#FFFFFF;" d="M211.636,481.77h-2.199l-0.474,1.054h-0.434l1.804-3.947h0.412l1.804,3.947h-0.44L211.636,481.77z
			 M211.484,481.432l-0.947-2.12l-0.947,2.12H211.484z"/>
		<path style="fill:#FFFFFF;" d="M217.28,478.878h1.607c1.263,0,2.114,0.812,2.114,1.974c0,1.161-0.851,1.973-2.114,1.973h-1.607
			V478.878z M218.864,482.464c1.049,0,1.725-0.665,1.725-1.612c0-0.947-0.677-1.613-1.725-1.613h-1.167v3.225H218.864z"/>
		<path style="fill:#FFFFFF;" d="M234.041,481.77h-2.199l-0.474,1.054h-0.434l1.804-3.947h0.412l1.804,3.947h-0.44L234.041,481.77z
			 M233.889,481.432l-0.947-2.12l-0.947,2.12H233.889z"/>
		<path style="fill:#FFFFFF;" d="M239.685,478.878h0.417v3.586h2.21v0.361h-2.627V478.878z"/>
		<path style="fill:#FFFFFF;" d="M247.082,478.878h0.417v3.586h2.21v0.361h-2.627V478.878z"/>
		<path style="fill:#FFFFFF;" d="M260.449,479.239v1.551h2.041v0.361h-2.041v1.675h-0.417v-3.947h2.706v0.361H260.449z"/>
		<path style="fill:#FFFFFF;" d="M267.678,478.878h0.417v3.947h-0.417V478.878z"/>
		<path style="fill:#FFFFFF;" d="M273.456,478.878h0.417v3.586h2.21v0.361h-2.627V478.878z"/>
		<path style="fill:#FFFFFF;" d="M283.644,482.464v0.361h-2.791v-3.947h2.706v0.361h-2.289v1.404h2.041v0.355h-2.041v1.466H283.644z
			"/>
		<path style="fill:#FFFFFF;" d="M294.672,479.239v1.551h2.041v0.361h-2.041v1.675h-0.417v-3.947h2.706v0.361H294.672z"/>
		<path style="fill:#FFFFFF;" d="M301.5,480.851c0-1.15,0.879-2.007,2.075-2.007c1.184,0,2.069,0.851,2.069,2.007
			c0,1.156-0.885,2.007-2.069,2.007C302.379,482.858,301.5,482.002,301.5,480.851z M305.226,480.851
			c0-0.942-0.705-1.635-1.652-1.635c-0.953,0-1.663,0.693-1.663,1.635c0,0.941,0.71,1.635,1.663,1.635
			C304.522,482.486,305.226,481.793,305.226,480.851z"/>
		<path style="fill:#FFFFFF;" d="M313.351,482.825l-0.902-1.269c-0.102,0.011-0.203,0.017-0.316,0.017h-1.06v1.252h-0.417v-3.947
			h1.477c1.004,0,1.613,0.507,1.613,1.353c0,0.62-0.327,1.054-0.902,1.24l0.964,1.353H313.351z M313.328,480.231
			c0-0.632-0.417-0.992-1.207-0.992h-1.048v1.979h1.048C312.911,481.218,313.328,480.851,313.328,480.231z"/>
		<path style="fill:#FFFFFF;" d="M322.907,478.878v3.947h-0.4v-3.158l-1.551,2.656h-0.197l-1.551-2.639v3.14h-0.4v-3.947h0.344
			l1.714,2.926l1.697-2.926H322.907z"/>
		<path style="fill:#FFFFFF;" d="M330.744,481.77h-2.199l-0.473,1.054h-0.434l1.804-3.947h0.411l1.804,3.947h-0.44L330.744,481.77z
			 M330.592,481.432l-0.947-2.12l-0.947,2.12H330.592z"/>
		<path style="fill:#FFFFFF;" d="M336.957,479.239h-1.387v-0.361h3.192v0.361h-1.387v3.586h-0.417V479.239z"/>
		<path style="fill:#FFFFFF;" d="M343.063,482.346l0.164-0.321c0.282,0.276,0.784,0.479,1.302,0.479c0.739,0,1.06-0.31,1.06-0.699
			c0-1.083-2.43-0.417-2.43-1.877c0-0.581,0.451-1.083,1.455-1.083c0.446,0,0.908,0.13,1.224,0.35l-0.141,0.333
			c-0.338-0.22-0.733-0.327-1.083-0.327c-0.722,0-1.043,0.321-1.043,0.716c0,1.083,2.43,0.429,2.43,1.866
			c0,0.581-0.462,1.077-1.472,1.077C343.937,482.858,343.356,482.65,343.063,482.346z"/>
	</g>
</g>
<g>
</g>
<g>
	<path style="fill-rule:evenodd;clip-rule:evenodd;fill:#798146;" d="M298.242,274.353c-1.573-0.301-3.147-0.602-4.72-0.907
		c-0.361-0.21-0.725-0.421-1.088-0.633c-0.15,0.301-0.303,0.604-0.453,0.905c-1.15,0.091-2.3,0.182-3.45,0.274
		c-0.482-0.274-0.966-0.546-1.449-0.818c-0.182,0.453-0.365,0.909-0.547,1.362c-0.876,0.15-1.752,0.301-2.629,0.453
		c-0.332-0.089-0.664-0.181-1-0.27c-0.09,0.361-0.179,0.725-0.27,1.088c-1.059,0.361-2.117,0.727-3.176,1.088
		c-0.453,0-0.909,0-1.362,0c-0.029,0.303-0.058,0.606-0.089,0.907c-2.964,1.482-5.929,2.964-8.891,4.446
		c-0.425-0.12-0.847-0.243-1.272-0.363c-0.06,0.243-0.119,0.484-0.181,0.727c-2.148,1.179-4.295,2.358-6.443,3.537
		c-0.573,0.031-1.148,0.062-1.723,0.091c0.091,0.303,0.183,0.606,0.274,0.909c-1,0.422-1.997,0.847-2.997,1.269
		c-0.332-0.089-0.664-0.181-0.997-0.272c-0.121,0.424-0.241,0.847-0.363,1.27c-0.907,0.303-1.814,0.604-2.722,0.909
		c-0.274-0.153-0.544-0.305-0.818-0.456c-0.089,0.274-0.18,0.544-0.271,0.818c-0.998,0.363-1.996,0.727-2.994,1.088
		c-0.423-0.212-0.846-0.424-1.27-0.635c-0.151,0.303-0.303,0.606-0.453,0.909c-1.543-0.031-3.086-0.062-4.628-0.091
		c0.318,2.736,1.921,4.642,6.351,4.716c9.388-0.993,19.164-7.252,29.035-14.788C285.088,276.64,291.772,274.992,298.242,274.353z"/>
	<linearGradient id="SVGID_1_" gradientUnits="userSpaceOnUse" x1="214.0414" y1="245.3729" x2="291.517" y2="245.3729">
		<stop  offset="0" style="stop-color:#E9A02A"/>
		<stop  offset="0.23" style="stop-color:#F7F0CA"/>
		<stop  offset="0.33" style="stop-color:#FFFFFF"/>
		<stop  offset="0.46" style="stop-color:#F7F0CA"/>
		<stop  offset="0.81" style="stop-color:#E0A431"/>
		<stop  offset="1" style="stop-color:#BF6E30"/>
	</linearGradient>
	
		<path style="fill-rule:evenodd;clip-rule:evenodd;fill:url(#SVGID_1_);stroke:#FFCA05;stroke-width:0.216;stroke-linecap:round;stroke-linejoin:round;stroke-miterlimit:22.9256;" d="
		M244.543,261.83c-3.484,2.911-7.57,2.378-11.045,3.579c-0.589,0.204-1.251,0.372-2.046,0.252c-3.627-0.538-7.308,0.022-10.96-0.978
		c0,0.515,0,1.031,0,1.548c-0.785,0.026-1.571,0.055-2.356,0.08c-0.557,0.31-0.528,0.582,0.08,0.816
		c0.217,0.108,0.434,0.217,0.65,0.327c-0.866-0.027-1.732-0.055-2.6-0.084c-0.403-0.11-0.457,0.055-0.161,0.491
		c0.351,0.272,0.704,0.542,1.056,0.814c-0.515,0.055-1.029,0.11-1.543,0.164c-0.664,0.27-0.746,0.542-0.245,0.814
		c0.46,0.027,0.921,0.053,1.381,0.082c-0.325,0.162-0.649,0.325-0.975,0.489c-0.209,0.276-0.33,0.529,0.163,0.65
		c5.552-0.298,11.105-0.595,16.656-0.894c0.028,0.217,0.055,0.434,0.082,0.652c-0.651,0.133-1.301,0.272-1.95,0.407
		c1.132,1.241,3.662,1.429,7.151,0.896c-1.003,0.382-2.004,0.761-3.007,1.141c2.443,0.632,5.447,0.619,9.263-0.325
		c-0.423,1.334-1.181,2.782-2.194,4.319c0.786-0.055,1.571-0.11,2.356-0.162c-0.569,0.624-1.137,1.25-1.707,1.875
		c1.843-0.814,3.683-1.63,5.526-2.446c0.297,0.761,0.595,1.522,0.892,2.282c0.812,1.168,1.625,2.336,2.439,3.505
		c0.026-0.38,0.053-0.759,0.081-1.141c1.002,0.951,2.002,1.902,3.006,2.853c0.053-0.272,0.108-0.544,0.162-0.814
		c0.812,0.624,1.625,1.249,2.437,1.873c-0.135-0.544-0.27-1.088-0.405-1.63c0.704,0.462,1.407,0.925,2.114,1.385
		c0.27-0.489,0.54-0.978,0.81-1.466c0.827,0.473,1.468,1.134,1.707,2.2c1.812,0.011,3.525,0.245,4.551,2.037
		c0.516-0.898,0.544-1.792,0.08-2.689c1.161,0.411,1.69,1.323,1.869,2.526c1.278-2.495,0.509-3.474-1.747-4.07
		c-1.34-0.354-2.681-0.71-4.021-1.064c-4.775-2.65-3.851-6.688-2.114-10.919c-0.243,1.982-0.487,3.964-0.73,5.949
		c1.3,1.006,2.599,2.01,3.899,3.014c0.217-0.108,0.434-0.215,0.652-0.325c0.378,0.38,0.758,0.759,1.137,1.141
		c0.405,0.082,0.812,0.162,1.219,0.245c0.026-0.298,0.053-0.597,0.08-0.896c0.325,0.19,0.65,0.38,0.975,0.571
		c1.004,0,2.004,0,3.008,0c0.405,0,0.81,0,1.217,0c1.203-0.038,2.256,0.071,2.276,1.221c0.405-0.109,0.81-0.217,1.219-0.325
		c-0.029,0.407-0.055,0.814-0.082,1.223c1.254-0.668,2.262-1.384,1.542-2.446c-0.792-0.469-1.584-0.938-2.377-1.405
		c-0.263-0.157-0.584-0.695-0.792-0.467c-1.25,1.365-7.818-2.592-6.987-3.994c0.65-1.099-2.444-5.852-3.828-7.882
		c-0.389-0.566-0.641-0.92-0.641-0.92c1.65-3.012,3.304-4.812,4.956-6.44c2.846,0.944,5.487,2.26,7.15,5.379
		c-0.215,0.434-0.432,0.867-0.65,1.303c2.959-0.889,3.853-2.763,2.683-5.624c0.606-2.083-0.168-3.304-1.139-4.399
		c-2.032-1.902-4.063-3.804-6.095-5.705c1.572-1.088,3.141-2.172,4.715-3.26c3.086-1.019,4.976-2.521,5.118-4.726
		c0.622-0.544,1.245-1.086,1.869-1.63c3.141-1.387,6.283-2.771,9.426-4.158c0.5-0.63,0.146-0.833-0.327-0.977
		c-2.382,0.871-4.766,1.74-7.15,2.608c-0.821,0.248-0.838-0.04-0.489-0.571c3.034-1.984,6.069-3.966,9.103-5.949
		c0.615-0.902,0.453-1.362-0.487-1.387c-2.674,1.152-4.998,2.652-6.987,4.483c-0.818,0.098-0.955-0.146-0.409-0.734
		c2.278-1.982,4.552-3.965,6.827-5.949c0.343-0.741,0.155-1.095-0.57-1.059c-2.869,1.436-5.253,3.309-7.148,5.624
		c-0.699,0.401-0.862,0.266-0.489-0.409c1.732-2.417,3.468-4.835,5.2-7.254c0.352-1.011-0.319-0.909-1.137-0.65
		c-1.573,1.982-3.143,3.965-4.713,5.947c-0.635,0.464-1.186,0.717-1.139-0.487c0.895-2.145,1.789-4.291,2.683-6.438
		c0.016-1.106-0.38-1.417-1.382-0.57c-0.949,1.71-1.896,3.42-2.844,5.133c0.378-1.738,0.758-3.477,1.137-5.217
		c-0.161-0.743-0.54-0.85-1.137-0.325c-0.622,1.194-1.247,2.391-1.869,3.585c-0.053-0.734-0.108-1.466-0.162-2.2
		c-0.179-0.735-0.571-0.856-1.137-0.327c-0.352,0.544-0.706,1.088-1.057,1.63c-0.027-0.517-0.055-1.031-0.08-1.548
		c-0.283-0.391-0.663-0.391-1.139,0c-0.216,0.272-0.435,0.542-0.65,0.816c-0.352-0.135-0.705-0.274-1.055-0.409
		c-0.599,0.354-1.194,0.707-1.789,1.059c-0.215-0.436-0.566-0.471-0.975-0.325c-0.434,0.734-0.867,1.468-1.3,2.201
		c-0.987-0.358-2.072-0.276-3.251,0.243c-3.55,1.78-7.099,4.74-10.643,8.884c-0.182,2.459,1.504,6.085,4.468,10.514
		c-4.945-4.173-6.789-9.26-8.369-14.425c-1.419-3.718-3.323-5.852-5.526-7.009c-2.279-2.108-3.484-4.373-4.387-6.682
		c-1.191-3.966-2.384-7.933-3.575-11.899c-0.309-0.779-0.715-0.779-1.218,0c-0.024,3.926,0.81,7.635,2.357,11.165
		c0.016,0.938-0.309,1.048-0.976,0.325c-2.735-4.779-5.47-9.561-8.206-14.343c-0.487-0.555-0.974-0.526-1.463,0.084
		c0.683,4.271,2.043,8.334,5.282,11.817c0.053,0.624-0.135,0.759-0.569,0.407c-3.678-3.766-6.682-7.869-9.181-12.224
		c-1.088-0.411-1.493-0.139-1.219,0.814c1.297,4.428,3.261,8.619,7.313,12.061c0.254,0.65,0.119,0.814-0.406,0.489
		c-3.792-3.205-7.584-6.41-11.376-9.617c-1.044-0.259-1.504,0.068-1.381,0.978c2.641,3.211,5.511,6.363,8.938,9.373
		c0.302,0.418,0.169,0.69-0.406,0.814c-3.71-1.875-7.421-3.749-11.132-5.624c-1.648-0.433-1.837,0.111-0.569,1.63
		c2.366,1.73,4.831,3.36,7.393,4.89c0.163,0.312,0.082,0.475-0.243,0.489c-2.844-0.841-5.688-1.683-8.532-2.526
		c-0.999,0.115-1.026,0.524-0.081,1.223c1.625,0.951,3.25,1.9,4.876,2.851c-0.028,0.246-0.055,0.491-0.082,0.736
		c-1.462-0.057-2.924-0.11-4.387-0.164c-0.762,0.464-0.843,0.924-0.245,1.385c1.734,0.761,3.467,1.52,5.2,2.282
		c-1.165,0.244-2.33,0.489-3.494,0.732c-2.24,0.314-1.642,1.438,0.244,2.935c-1.375,1.132-1.375,2.165,0,3.097
		c-0.972,1.066-0.862,1.937,0.326,2.608c0.704,0.624,1.409,1.249,2.113,1.873c0.357,6.566,3.269,12.81,9.913,18.581
		c0.407,0.055,0.812,0.11,1.218,0.162c0.177,1.933,0.776,3.693,4.307,4.238c0.786-0.108,1.571-0.217,2.357-0.325
		c0.27,0.382,0.541,0.761,0.811,1.141c-0.096,0.522,0.626,0.77,1.464,0.978c0.786-0.164,1.57-0.327,2.355-0.489
		c0.19,0.11,0.379,0.217,0.569,0.325c0.004,1.011,0.709,1.555,2.114,1.632c1.11-0.626,2.22-1.252,3.331-1.876
		C243.621,261.613,244.082,261.722,244.543,261.83z"/>
	<path style="fill:#798146;" d="M30.125,220.088l0.065,6.816h3.27c0.752,0,1.301-0.162,1.647-0.482
		c0.345-0.318,0.57-0.949,0.678-1.897h0.489l0.056,5.861h-0.489c-0.015-0.672-0.11-1.163-0.286-1.478
		c-0.174-0.318-0.416-0.551-0.726-0.71c-0.304-0.157-0.758-0.235-1.36-0.235H30.2l0.052,5.443c0.008,0.878,0.067,1.457,0.188,1.738
		c0.089,0.212,0.276,0.396,0.562,0.547c0.391,0.206,0.794,0.31,1.22,0.31h0.651l0.004,0.471h-7.713l-0.005-0.471h0.633
		c0.742,0,1.283-0.208,1.614-0.628c0.21-0.27,0.307-0.927,0.298-1.968l-0.107-11.196c-0.008-0.876-0.072-1.456-0.188-1.736
		c-0.093-0.213-0.276-0.396-0.548-0.549c-0.382-0.204-0.79-0.307-1.224-0.307h-0.633L25,219.143h13.372l0.208,3.808h-0.466
		c-0.234-0.807-0.511-1.4-0.818-1.78c-0.307-0.378-0.684-0.653-1.134-0.823c-0.449-0.172-1.138-0.259-2.074-0.259H30.125
		L30.125,220.088z M53.841,218.75c2.334,0,4.364,0.85,6.09,2.561c1.727,1.708,2.602,3.839,2.626,6.394
		c0.025,2.634-0.818,4.821-2.525,6.556c-1.707,1.74-3.784,2.608-6.232,2.608c-2.47,0-4.559-0.851-6.258-2.544
		c-1.698-1.696-2.561-3.89-2.586-6.582c-0.027-2.753,0.924-4.994,2.848-6.734C49.482,219.501,51.492,218.75,53.841,218.75
		L53.841,218.75z M53.601,219.679c-1.611,0-2.894,0.577-3.856,1.727c-1.194,1.431-1.781,3.525-1.754,6.286
		c0.027,2.831,0.677,5.009,1.945,6.531c0.975,1.159,2.251,1.739,3.834,1.739c1.687,0,3.075-0.637,4.162-1.907
		c1.087-1.269,1.62-3.271,1.594-6.005c-0.027-2.962-0.655-5.173-1.882-6.629C56.66,220.26,55.314,219.679,53.601,219.679
		L53.601,219.679z M86.291,236.472h-4.8l-6.161-8.099c-0.448,0.013-0.814,0.022-1.099,0.022c-0.113,0-0.235,0-0.371-0.005
		c-0.13-0.004-0.267-0.007-0.412-0.016l0.047,5.032c0.011,1.092,0.144,1.767,0.391,2.033c0.343,0.376,0.847,0.562,1.517,0.562h0.705
		l0.005,0.471h-7.7l-0.004-0.471h0.673c0.76,0,1.301-0.239,1.622-0.716c0.183-0.266,0.272-0.894,0.263-1.88l-0.107-11.196
		c-0.011-1.091-0.144-1.767-0.391-2.028c-0.348-0.376-0.864-0.564-1.543-0.564h-0.673l-0.005-0.475h6.546
		c1.908,0,3.317,0.135,4.224,0.405c0.908,0.267,1.681,0.759,2.322,1.478c0.635,0.725,0.961,1.581,0.97,2.579
		c0.01,1.064-0.338,1.988-1.054,2.773c-0.713,0.781-1.82,1.336-3.327,1.659l3.756,4.972c0.856,1.143,1.596,1.902,2.207,2.276
		c0.614,0.373,1.413,0.612,2.395,0.716L86.291,236.472L86.291,236.472z M73.441,227.567c0.172,0,0.316,0,0.439,0.004
		c0.121,0.005,0.226,0.009,0.302,0.009c1.716,0,3.005-0.358,3.867-1.073c0.866-0.715,1.291-1.628,1.281-2.734
		c-0.01-1.082-0.372-1.964-1.079-2.639c-0.708-0.675-1.643-1.017-2.802-1.017c-0.51,0-1.202,0.082-2.078,0.245L73.441,227.567
		L73.441,227.567z M95.831,220.088l0.065,6.848h3.949c1.028,0,1.708-0.148,2.05-0.445c0.458-0.391,0.705-1.081,0.75-2.07h0.488
		l0.058,6.033h-0.489c-0.13-0.841-0.261-1.384-0.386-1.623c-0.161-0.298-0.426-0.533-0.789-0.703
		c-0.363-0.17-0.921-0.257-1.672-0.257h-3.949l0.055,5.713c0.007,0.768,0.047,1.236,0.117,1.402
		c0.075,0.164,0.197,0.296,0.375,0.396c0.178,0.097,0.518,0.144,1.01,0.144h3.049c1.013,0,1.755-0.066,2.209-0.204
		c0.461-0.135,0.897-0.402,1.318-0.803c0.543-0.527,1.096-1.325,1.66-2.391h0.529l-1.505,4.344H90.872l-0.006-0.471h0.638
		c0.421,0,0.822-0.099,1.2-0.296c0.284-0.135,0.472-0.34,0.573-0.612c0.098-0.274,0.141-0.832,0.134-1.674l-0.108-11.258
		c-0.011-1.099-0.13-1.776-0.363-2.033c-0.319-0.34-0.851-0.511-1.593-0.511H90.71l-0.004-0.475h13.851l0.236,3.795h-0.52
		c-0.194-0.911-0.403-1.535-0.633-1.875c-0.229-0.341-0.562-0.602-1.007-0.781c-0.354-0.128-0.979-0.193-1.871-0.193H95.831
		L95.831,220.088z M130.262,219.143l0.004,0.475c-0.637,0.11-1.114,0.307-1.442,0.586c-0.462,0.418-0.872,1.061-1.226,1.918
		l-6.128,14.748h-0.489l-6.873-14.94c-0.357-0.768-0.601-1.234-0.747-1.404c-0.22-0.267-0.494-0.471-0.821-0.621
		c-0.323-0.151-0.757-0.244-1.306-0.288l-0.004-0.475h7.342l0.004,0.475c-0.831,0.075-1.369,0.215-1.615,0.407
		c-0.243,0.195-0.367,0.449-0.363,0.754c0.004,0.427,0.214,1.092,0.629,1.993l4.671,10.16l4.142-10.028
		c0.407-0.989,0.609-1.675,0.605-2.059c-0.003-0.248-0.132-0.484-0.392-0.712c-0.26-0.223-0.691-0.383-1.303-0.475
		c-0.045-0.007-0.118-0.022-0.226-0.04l-0.005-0.475H130.262L130.262,219.143z M140.536,220.088l0.066,6.848h3.949
		c1.027,0,1.709-0.148,2.05-0.445c0.457-0.391,0.704-1.081,0.749-2.07h0.488l0.058,6.033h-0.488
		c-0.13-0.841-0.262-1.384-0.387-1.623c-0.161-0.298-0.425-0.533-0.789-0.703c-0.364-0.17-0.922-0.257-1.673-0.257h-3.948
		l0.054,5.713c0.008,0.768,0.048,1.236,0.118,1.402c0.074,0.164,0.197,0.296,0.374,0.396c0.178,0.097,0.517,0.144,1.01,0.144h3.049
		c1.013,0,1.755-0.066,2.21-0.204c0.46-0.135,0.896-0.402,1.317-0.803c0.543-0.527,1.096-1.325,1.661-2.391h0.529l-1.505,4.344
		h-13.851l-0.004-0.471h0.637c0.422,0,0.823-0.099,1.201-0.296c0.284-0.135,0.472-0.34,0.573-0.612
		c0.097-0.274,0.142-0.832,0.133-1.674l-0.108-11.258c-0.01-1.099-0.13-1.776-0.363-2.033c-0.319-0.34-0.851-0.511-1.593-0.511
		h-0.637l-0.004-0.475h13.851l0.236,3.795h-0.521c-0.194-0.911-0.403-1.535-0.633-1.875c-0.229-0.341-0.561-0.602-1.007-0.781
		c-0.354-0.128-0.978-0.193-1.87-0.193H140.536L140.536,220.088z M174.206,236.472h-4.799l-6.161-8.099
		c-0.448,0.013-0.815,0.022-1.1,0.022c-0.113,0-0.236,0-0.371-0.005c-0.131-0.004-0.266-0.007-0.412-0.016l0.048,5.032
		c0.01,1.092,0.144,1.767,0.391,2.033c0.343,0.376,0.846,0.562,1.516,0.562h0.706l0.004,0.471h-7.699l-0.005-0.471h0.675
		c0.76,0,1.301-0.239,1.621-0.716c0.183-0.266,0.273-0.894,0.263-1.88l-0.107-11.196c-0.01-1.091-0.143-1.767-0.39-2.028
		c-0.348-0.376-0.865-0.564-1.543-0.564h-0.674l-0.005-0.475h6.546c1.909,0,3.317,0.135,4.225,0.405
		c0.907,0.267,1.681,0.759,2.322,1.478c0.635,0.725,0.96,1.581,0.969,2.579c0.011,1.064-0.339,1.988-1.054,2.773
		c-0.712,0.781-1.82,1.336-3.328,1.659l3.757,4.972c0.857,1.143,1.597,1.902,2.207,2.276c0.614,0.373,1.413,0.612,2.395,0.716
		L174.206,236.472L174.206,236.472z M161.355,227.567c0.173,0,0.317,0,0.439,0.004c0.122,0.005,0.225,0.009,0.303,0.009
		c1.715,0,3.004-0.358,3.867-1.073c0.866-0.715,1.291-1.628,1.281-2.734c-0.011-1.082-0.372-1.964-1.08-2.639
		c-0.707-0.675-1.643-1.017-2.801-1.017c-0.511,0-1.203,0.082-2.079,0.245L161.355,227.567z"/>
	<path style="fill:#798146;" d="M108.33,261.186l0.44,0.091l-1.493,4.702H93.363l-0.005-0.471h0.679c0.76,0,1.301-0.241,1.622-0.715
		c0.183-0.274,0.267-0.907,0.257-1.893l-0.106-11.183c-0.011-1.082-0.14-1.76-0.391-2.03c-0.348-0.374-0.86-0.562-1.539-0.562
		h-0.679l-0.005-0.475h8.139l0.004,0.475c-0.954-0.007-1.624,0.075-2.006,0.254c-0.382,0.177-0.643,0.405-0.781,0.681
		c-0.137,0.27-0.203,0.924-0.194,1.952l0.104,10.888c0.006,0.706,0.084,1.19,0.226,1.457c0.106,0.179,0.27,0.31,0.493,0.396
		c0.222,0.084,0.911,0.128,2.068,0.128h1.312c1.38,0,2.347-0.097,2.902-0.292c0.554-0.197,1.058-0.546,1.514-1.044
		C107.429,263.048,107.884,262.259,108.33,261.186L108.33,261.186z M122.034,265.508l0.005,0.471h-7.704l-0.005-0.471h0.638
		c0.742,0,1.278-0.208,1.609-0.628c0.21-0.27,0.312-0.929,0.302-1.968l-0.107-11.195c-0.008-0.876-0.073-1.457-0.189-1.738
		c-0.091-0.212-0.275-0.396-0.548-0.548c-0.391-0.206-0.799-0.307-1.224-0.307h-0.638l-0.006-0.475h7.704l0.005,0.475h-0.652
		c-0.733,0-1.265,0.21-1.595,0.624c-0.219,0.274-0.326,0.929-0.316,1.968l0.107,11.195c0.008,0.876,0.073,1.457,0.188,1.736
		c0.093,0.214,0.279,0.396,0.562,0.55c0.381,0.204,0.785,0.31,1.21,0.31H122.034L122.034,265.508z M146.067,248.65l0.005,0.475
		c-0.637,0.11-1.114,0.307-1.442,0.584c-0.462,0.42-0.872,1.061-1.226,1.92l-6.128,14.747h-0.489l-6.874-14.939
		c-0.355-0.768-0.6-1.236-0.747-1.405c-0.219-0.265-0.492-0.471-0.82-0.619c-0.322-0.153-0.758-0.244-1.305-0.288l-0.005-0.475
		h7.342l0.005,0.475c-0.831,0.075-1.368,0.215-1.615,0.405c-0.243,0.197-0.366,0.449-0.363,0.756
		c0.004,0.427,0.213,1.09,0.629,1.992l4.671,10.159l4.143-10.028c0.406-0.99,0.608-1.675,0.604-2.058
		c-0.002-0.248-0.131-0.486-0.392-0.712c-0.26-0.223-0.691-0.383-1.303-0.475c-0.045-0.009-0.117-0.022-0.226-0.04l-0.004-0.475
		H146.067L146.067,248.65z M159.199,265.508l0.005,0.471H151.5l-0.005-0.471h0.638c0.742,0,1.278-0.208,1.609-0.628
		c0.21-0.27,0.312-0.929,0.302-1.968l-0.107-11.195c-0.008-0.876-0.073-1.457-0.189-1.738c-0.092-0.212-0.276-0.396-0.549-0.548
		c-0.39-0.206-0.798-0.307-1.224-0.307h-0.638l-0.004-0.475h7.704l0.004,0.475h-0.651c-0.733,0-1.265,0.21-1.596,0.624
		c-0.218,0.274-0.325,0.929-0.316,1.968l0.107,11.195c0.009,0.876,0.073,1.457,0.189,1.736c0.093,0.214,0.28,0.396,0.562,0.55
		c0.381,0.204,0.785,0.31,1.21,0.31H159.199L159.199,265.508z M163.604,248.65h4.876l11.112,12.997l-0.096-9.992
		c-0.01-1.064-0.142-1.73-0.39-1.993c-0.334-0.358-0.851-0.537-1.556-0.537h-0.624l-0.005-0.475h6.257l0.005,0.475h-0.638
		c-0.76,0-1.297,0.223-1.609,0.664c-0.192,0.274-0.281,0.892-0.272,1.866l0.14,14.603h-0.479l-11.98-13.954l0.101,10.674
		c0.01,1.064,0.134,1.727,0.376,1.993c0.339,0.358,0.861,0.537,1.557,0.537h0.633l0.005,0.471h-6.252l-0.005-0.471h0.62
		c0.768,0,1.309-0.223,1.626-0.668c0.193-0.27,0.282-0.895,0.272-1.862l-0.115-12.052c-0.526-0.59-0.927-0.977-1.197-1.164
		c-0.273-0.188-0.668-0.361-1.19-0.524c-0.258-0.073-0.648-0.113-1.168-0.113L163.604,248.65L163.604,248.65z M204.482,248.256
		l0.513,5.466h-0.461c-0.484-1.36-1.099-2.385-1.848-3.078c-1.077-0.995-2.457-1.493-4.135-1.493c-2.289,0-4.022,0.872-5.195,2.617
		c-0.986,1.474-1.466,3.228-1.447,5.263c0.016,1.654,0.361,3.163,1.034,4.525c0.678,1.365,1.556,2.364,2.634,2.995
		c1.078,0.639,2.185,0.956,3.316,0.956c0.665,0,1.302-0.084,1.921-0.245c0.618-0.161,1.208-0.401,1.78-0.716l-0.048-5.012
		c-0.008-0.867-0.08-1.435-0.22-1.705c-0.137-0.267-0.352-0.471-0.644-0.61c-0.286-0.146-0.794-0.216-1.518-0.216l-0.004-0.484
		h6.957l0.005,0.484h-0.33c-0.692,0-1.161,0.223-1.414,0.668c-0.174,0.314-0.254,0.938-0.246,1.862l0.051,5.304
		c-1.013,0.529-2.013,0.916-2.997,1.164c-0.988,0.25-2.086,0.372-3.298,0.372c-3.47,0-6.117-1.073-7.943-3.22
		c-1.368-1.614-2.06-3.468-2.08-5.575c-0.015-1.522,0.351-2.983,1.098-4.384c0.884-1.66,2.112-2.938,3.673-3.832
		c1.309-0.741,2.862-1.11,4.653-1.11c0.656,0,1.25,0.049,1.789,0.153c0.534,0.102,1.292,0.329,2.277,0.675
		c0.495,0.179,0.83,0.266,0.998,0.266c0.167,0,0.31-0.073,0.427-0.223c0.116-0.146,0.185-0.44,0.208-0.872H204.482z"/>
	<path style="fill:#798146;" d="M310.366,257.865l0.047,5.047c0.011,1.092,0.146,1.767,0.396,2.033
		c0.338,0.374,0.847,0.562,1.524,0.562h0.694l0.004,0.471h-7.699l-0.004-0.471h0.673c0.761,0,1.301-0.241,1.623-0.715
		c0.173-0.267,0.257-0.895,0.248-1.88l-0.106-11.195c-0.011-1.092-0.135-1.767-0.378-2.03c-0.349-0.374-0.865-0.562-1.542-0.562
		h-0.675l-0.004-0.475h6.586c1.606,0,2.873,0.161,3.804,0.478c0.935,0.319,1.719,0.86,2.364,1.619
		c0.644,0.759,0.971,1.656,0.98,2.695c0.015,1.413-0.46,2.565-1.42,3.45c-0.958,0.887-2.32,1.331-4.089,1.331
		c-0.431,0-0.902-0.031-1.404-0.091C311.487,258.072,310.943,257.984,310.366,257.865L310.366,257.865z M310.359,257.137
		c0.471,0.084,0.889,0.15,1.252,0.192c0.361,0.038,0.668,0.062,0.927,0.062c0.918,0,1.707-0.341,2.369-1.029
		c0.659-0.684,0.986-1.572,0.975-2.661c-0.007-0.75-0.171-1.447-0.496-2.089c-0.325-0.644-0.778-1.124-1.365-1.442
		c-0.588-0.325-1.252-0.482-1.995-0.482c-0.447,0-1.026,0.08-1.736,0.241L310.359,257.137L310.359,257.137z M342.582,265.979h-4.801
		l-6.162-8.101c-0.447,0.015-0.814,0.022-1.099,0.022c-0.113,0-0.234,0-0.371-0.004c-0.13-0.004-0.268-0.009-0.413-0.018
		l0.049,5.034c0.011,1.092,0.142,1.767,0.391,2.033c0.343,0.374,0.847,0.562,1.515,0.562h0.705l0.005,0.471h-7.699l-0.006-0.471
		h0.675c0.759,0,1.3-0.241,1.621-0.715c0.182-0.267,0.274-0.895,0.263-1.88l-0.106-11.195c-0.011-1.092-0.144-1.767-0.39-2.03
		c-0.347-0.374-0.865-0.562-1.544-0.562h-0.674l-0.005-0.475h6.547c1.907,0,3.317,0.135,4.224,0.405
		c0.907,0.267,1.681,0.759,2.32,1.478c0.637,0.723,0.962,1.578,0.971,2.577c0.011,1.066-0.339,1.989-1.055,2.774
		c-0.712,0.781-1.818,1.336-3.326,1.658l3.757,4.972c0.856,1.144,1.595,1.902,2.205,2.278c0.617,0.37,1.415,0.609,2.397,0.715
		L342.582,265.979L342.582,265.979z M329.73,257.071c0.172,0,0.316,0,0.44,0.004c0.12,0.005,0.226,0.011,0.303,0.011
		c1.714,0,3.004-0.358,3.866-1.073c0.865-0.715,1.292-1.628,1.281-2.736c-0.011-1.082-0.372-1.961-1.079-2.637
		c-0.708-0.677-1.644-1.018-2.802-1.018c-0.511,0-1.203,0.084-2.077,0.244L329.73,257.071L329.73,257.071z M356.36,248.256
		c2.335,0,4.366,0.851,6.091,2.563c1.727,1.708,2.601,3.836,2.627,6.393c0.025,2.634-0.818,4.819-2.526,6.555
		c-1.705,1.741-3.782,2.61-6.232,2.61c-2.468,0-4.558-0.851-6.257-2.544c-1.699-1.696-2.561-3.891-2.588-6.582
		c-0.026-2.752,0.927-4.994,2.851-6.734C352.001,249.008,354.012,248.256,356.36,248.256L356.36,248.256z M356.119,249.187
		c-1.61,0-2.893,0.575-3.855,1.727c-1.194,1.43-1.78,3.524-1.752,6.285c0.026,2.829,0.675,5.007,1.942,6.529
		c0.976,1.161,2.252,1.74,3.837,1.74c1.686,0,3.074-0.635,4.162-1.906c1.086-1.27,1.619-3.271,1.592-6.005
		c-0.027-2.963-0.653-5.175-1.88-6.63C359.18,249.768,357.834,249.187,356.119,249.187L356.119,249.187z M370.933,265.979
		l-0.004-0.471h0.675c0.759,0,1.296-0.236,1.608-0.707c0.192-0.279,0.285-0.911,0.276-1.889l-0.106-11.195
		c-0.011-1.082-0.146-1.76-0.391-2.03c-0.349-0.374-0.865-0.562-1.544-0.562h-0.676l-0.004-0.475h7.316
		c2.683,0,4.729,0.296,6.137,0.88c1.404,0.59,2.541,1.572,3.408,2.94c0.863,1.374,1.309,2.959,1.325,4.755
		c0.024,2.413-0.717,4.428-2.221,6.045c-1.688,1.807-4.282,2.709-7.768,2.709H370.933L370.933,265.979z M376.047,264.727
		c1.124,0.241,2.066,0.358,2.826,0.358c2.052,0,3.745-0.694,5.083-2.084c1.34-1.387,1.999-3.271,1.977-5.649
		c-0.022-2.389-0.719-4.278-2.085-5.656c-1.365-1.384-3.105-2.073-5.226-2.073c-0.798,0-1.701,0.124-2.716,0.372L376.047,264.727
		L376.047,264.727z M407.117,249.125l-0.004-0.475h6.365l0.004,0.475h-0.677c-0.706,0-1.247,0.285-1.621,0.854
		c-0.182,0.266-0.272,0.878-0.263,1.842l0.067,7.027c0.016,1.74-0.148,3.087-0.496,4.043c-0.347,0.96-1.046,1.785-2.084,2.47
		c-1.042,0.684-2.464,1.028-4.264,1.028c-1.964,0-3.455-0.325-4.476-0.986c-1.024-0.653-1.75-1.533-2.187-2.643
		c-0.288-0.758-0.447-2.179-0.465-4.269l-0.066-6.773c-0.011-1.066-0.166-1.763-0.478-2.095c-0.305-0.33-0.799-0.497-1.478-0.497
		h-0.679l-0.004-0.475h7.767l0.005,0.475h-0.688c-0.741,0-1.272,0.223-1.584,0.675c-0.221,0.307-0.323,0.947-0.312,1.917
		l0.071,7.552c0.007,0.672,0.077,1.446,0.212,2.313c0.139,0.869,0.378,1.55,0.717,2.033c0.338,0.484,0.827,0.885,1.462,1.199
		c0.637,0.318,1.413,0.475,2.331,0.475c1.175,0,2.223-0.248,3.145-0.741c0.924-0.493,1.555-1.124,1.887-1.898
		c0.332-0.77,0.491-2.074,0.473-3.917l-0.066-7.015c-0.011-1.082-0.144-1.76-0.391-2.03c-0.352-0.374-0.865-0.562-1.544-0.562
		H407.117L407.117,249.125z M434.365,248.256l0.469,5.887h-0.413c-0.564-1.761-1.358-3.029-2.378-3.807
		c-1.026-0.776-2.247-1.165-3.671-1.165c-1.195,0-2.269,0.292-3.227,0.878c-0.958,0.584-1.705,1.513-2.243,2.79
		c-0.54,1.278-0.801,2.869-0.783,4.768c0.015,1.566,0.287,2.928,0.821,4.078c0.531,1.148,1.321,2.03,2.377,2.645
		c1.051,0.615,2.249,0.92,3.592,0.92c1.168,0,2.192-0.239,3.083-0.725c0.887-0.478,1.86-1.435,2.913-2.866l0.414,0.254
		c-0.885,1.542-1.929,2.674-3.121,3.39c-1.196,0.716-2.617,1.073-4.273,1.073c-2.977,0-5.293-1.066-6.947-3.198
		c-1.232-1.584-1.86-3.45-1.882-5.596c-0.016-1.727,0.371-3.318,1.157-4.768c0.792-1.448,1.889-2.569,3.289-3.367
		c1.404-0.794,2.939-1.192,4.607-1.192c1.298,0,2.586,0.307,3.855,0.916c0.372,0.188,0.641,0.285,0.798,0.285
		c0.236,0,0.444-0.084,0.617-0.245c0.23-0.226,0.389-0.549,0.486-0.956H434.365L434.365,248.256z M456.103,248.65l0.239,4.064
		h-0.507c-0.102-0.715-0.237-1.224-0.413-1.534c-0.277-0.493-0.646-0.856-1.101-1.091c-0.46-0.236-1.057-0.352-1.8-0.352h-2.533
		l0.126,13.242c0.011,1.064,0.139,1.727,0.378,1.993c0.338,0.358,0.86,0.537,1.555,0.537h0.626l0.004,0.471h-7.622l-0.004-0.471
		h0.637c0.759,0,1.296-0.223,1.608-0.668c0.192-0.27,0.287-0.895,0.278-1.862l-0.128-13.242h-2.161c-0.838,0-1.435,0.06-1.785,0.177
		c-0.46,0.162-0.851,0.476-1.172,0.935c-0.321,0.464-0.511,1.081-0.566,1.866h-0.502l0.173-4.064H456.103L456.103,248.65z
		 M473.68,248.256l0.056,5.993h-0.489c-0.173-1.152-0.467-2.066-0.882-2.748c-0.418-0.683-1.011-1.225-1.774-1.621
		c-0.763-0.401-1.55-0.602-2.362-0.602c-0.92,0-1.677,0.27-2.272,0.81c-0.597,0.542-0.891,1.157-0.883,1.844
		c0.005,0.527,0.201,1.013,0.584,1.444c0.553,0.643,1.863,1.493,3.934,2.555c1.686,0.869,2.842,1.537,3.457,2.004
		c0.619,0.46,1.099,1.011,1.435,1.639c0.336,0.632,0.511,1.292,0.517,1.98c0.013,1.313-0.506,2.442-1.55,3.393
		c-1.049,0.951-2.402,1.427-4.063,1.427c-0.524,0-1.013-0.04-1.475-0.119c-0.272-0.038-0.843-0.195-1.707-0.462
		c-0.861-0.27-1.409-0.405-1.641-0.405c-0.221,0-0.393,0.066-0.522,0.19c-0.126,0.128-0.219,0.394-0.279,0.796h-0.487l-0.056-5.941
		h0.487c0.243,1.243,0.564,2.172,0.96,2.791c0.394,0.615,0.991,1.13,1.796,1.541c0.801,0.405,1.679,0.61,2.634,0.61
		c1.104,0,1.975-0.278,2.612-0.841c0.632-0.562,0.947-1.225,0.94-1.993c-0.005-0.427-0.13-0.856-0.374-1.291
		c-0.248-0.438-0.633-0.838-1.148-1.212c-0.345-0.259-1.292-0.799-2.838-1.632c-1.544-0.829-2.641-1.493-3.298-1.986
		c-0.655-0.496-1.15-1.042-1.495-1.635c-0.339-0.597-0.515-1.256-0.52-1.971c-0.013-1.242,0.471-2.31,1.453-3.21
		c0.982-0.898,2.236-1.349,3.764-1.349c0.955,0,1.969,0.223,3.043,0.677c0.495,0.214,0.849,0.319,1.048,0.319
		c0.23,0,0.42-0.066,0.564-0.197c0.144-0.135,0.259-0.401,0.345-0.799H473.68z"/>
</g>
</svg>
